# xmcd
#
# Track frame offsets:
#      150
#      12665
#      22678
#      31108
#      42289
#      53293
#      65817
#      77075
#      86011
#      98137
# 
# Disc length: 1467 seconds
#
# Revision: 1
# Processed by: cddbd v1.5.1PL2 Copyright (c) Steve Scherf et al.
#
# Submitted via: FreeRIP 1.20
#
DISCID=6d05b90a
DTITLE=Johnny Cash - Rock Island Line
DYEAR=2005
DGENRE=Country
TTITLE0=I Walk The Line
TTITLE1=Rock Island Line
TTITLE2=Wreck of The Old 97
TTITLE3=I Love You Because
TTITLE4=I Heard That Lonesome Whistle Blow
TTITLE5=Give My Love To Rose
TTITLE6=Oh Lonesome Me
TTITLE7=Katy Too
TTITLE8=Home of The Blues
TTITLE9=Thanks A Lot
EXTD=
EXTT0=
EXTT1=
EXTT2=
EXTT3=
EXTT4=
EXTT5=
EXTT6=
EXTT7=
EXTT8=
EXTT9=
PLAYORDER=
